/home/xinjie/Newton_Connection/Newton/phystwin_bridge/tools/core/newton_import_ir.py:1209: UserWarning: tabletop_table_box: PhysTwin ground collide_elas is present in IR, but native Newton SemiImplicit has no direct 1-to-1 restitution field for particle-vs-shape contacts. Ground bounce will therefore use native Newton ground ke/kd/kf defaults unless --ground-restitution-mode=approximate-native is selected.
  warnings.warn(message)
ffmpeg version 6.1.1-3ubuntu5+esm7 Copyright (c) 2000-2023 the FFmpeg developers
  built with gcc 13 (Ubuntu 13.3.0-6ubuntu2~24.04)
  configuration: --prefix=/usr --extra-version=3ubuntu5+esm7 --toolchain=hardened --libdir=/usr/lib/x86_64-linux-gnu --incdir=/usr/include/x86_64-linux-gnu --arch=amd64 --enable-gpl --disable-stripping --disable-omx --enable-gnutls --enable-libaom --enable-libass --enable-libbs2b --enable-libcaca --enable-libcdio --enable-libcodec2 --enable-libdav1d --enable-libflite --enable-libfontconfig --enable-libfreetype --enable-libfribidi --enable-libglslang --enable-libgme --enable-libgsm --enable-libharfbuzz --enable-libmp3lame --enable-libmysofa --enable-libopenjpeg --enable-libopenmpt --enable-libopus --enable-librubberband --enable-libshine --enable-libsnappy --enable-libsoxr --enable-libspeex --enable-libtheora --enable-libtwolame --enable-libvidstab --enable-libvorbis --enable-libvpx --enable-libwebp --enable-libx265 --enable-libxml2 --enable-libxvid --enable-libzimg --enable-openal --enable-opencl --enable-opengl --disable-sndio --enable-libvpl --disable-libmfx --enable-libdc1394 --enable-libdrm --enable-libiec61883 --enable-chromaprint --enable-frei0r --enable-ladspa --enable-libbluray --enable-libjack --enable-libpulse --enable-librabbitmq --enable-librist --enable-libsrt --enable-libssh --enable-libsvtav1 --enable-libx264 --enable-libzmq --enable-libzvbi --enable-lv2 --enable-sdl2 --enable-libplacebo --enable-librav1e --enable-pocketsphinx --enable-librsvg --enable-libjxl --enable-shared
  libavutil      58. 29.100 / 58. 29.100
  libavcodec     60. 31.102 / 60. 31.102
  libavformat    60. 16.100 / 60. 16.100
  libavdevice    60.  3.100 / 60.  3.100
  libavfilter     9. 12.100 /  9. 12.100
  libswscale      7.  5.100 /  7.  5.100
  libswresample   4. 12.100 /  4. 12.100
  libpostproc    57.  3.100 / 57.  3.100
Input #0, rawvideo, from 'fd:':
  Duration: N/A, start: 0.000000, bitrate: 663552 kb/s
  Stream #0:0: Video: rawvideo (RGB[24] / 0x18424752), rgb24, 1280x720, 663552 kb/s, 30 tbr, 30 tbn
Stream mapping:
  Stream #0:0 -> #0:0 (rawvideo (native) -> h264 (libx264))
[libx264 @ 0x5b9657e0a480] using cpu capabilities: MMX2 SSE2Fast SSSE3 SSE4.2 AVX FMA3 BMI2 AVX2
[libx264 @ 0x5b9657e0a480] profile High, level 3.1, 4:2:0, 8-bit
[libx264 @ 0x5b9657e0a480] 264 - core 164 r3108 31e19f9 - H.264/MPEG-4 AVC codec - Copyleft 2003-2023 - http://www.videolan.org/x264.html - options: cabac=1 ref=3 deblock=1:0:0 analyse=0x3:0x113 me=hex subme=7 psy=1 psy_rd=1.00:0.00 mixed_ref=1 me_range=16 chroma_me=1 trellis=1 8x8dct=1 cqm=0 deadzone=21,11 fast_pskip=1 chroma_qp_offset=-2 threads=22 lookahead_threads=3 sliced_threads=0 nr=0 decimate=1 interlaced=0 bluray_compat=0 constrained_intra=0 bframes=3 b_pyramid=2 b_adapt=1 b_bias=0 direct=1 weightb=1 open_gop=0 weightp=2 keyint=250 keyint_min=25 scenecut=40 intra_refresh=0 rc_lookahead=40 rc=crf mbtree=1 crf=18.0 qcomp=0.60 qpmin=0 qpmax=69 qpstep=4 ip_ratio=1.40 aq=1:1.00
Output #0, mp4, to '/home/xinjie/Newton_Connection/Newton/phystwin_bridge/results/robot_rope_franka/candidates/20260401_202952_remotefix_visradius_c11/presentation/work/robot_rope_tabletop_hero.mp4':
  Metadata:
    encoder         : Lavf60.16.100
  Stream #0:0: Video: h264 (avc1 / 0x31637661), yuv420p(tv, progressive), 1280x720, q=2-31, 30 fps, 15360 tbn
    Metadata:
      encoder         : Lavc60.31.102 libx264
    Side data:
      cpb: bitrate max/min/avg: 0/0/0 buffer size: 0 vbv_delay: N/A
frame=    0 fps=0.0 q=0.0 size=       0kB time=N/A bitrate=N/A speed=N/A    frame=   49 fps=0.0 q=24.0 size=       0kB time=00:00:01.56 bitrate=   0.2kbits/s speed=3.11x    [out#0/mp4 @ 0x5b9657e08c80] video:730kB audio:0kB subtitle:0kB other streams:0kB global headers:0kB muxing overhead: 0.412725%
frame=  186 fps=0.0 q=-1.0 Lsize=     733kB time=00:00:06.10 bitrate= 984.0kbits/s speed=6.85x    
[libx264 @ 0x5b9657e0a480] frame I:1     Avg QP:12.19  size: 87778
[libx264 @ 0x5b9657e0a480] frame P:48    Avg QP:16.50  size:  7758
[libx264 @ 0x5b9657e0a480] frame B:137   Avg QP:22.87  size:  2090
[libx264 @ 0x5b9657e0a480] consecutive B-frames:  0.5%  3.2%  1.6% 94.6%
[libx264 @ 0x5b9657e0a480] mb I  I16..4: 17.2% 39.2% 43.6%
[libx264 @ 0x5b9657e0a480] mb P  I16..4:  0.2%  0.4%  0.3%  P16..4:  4.8%  3.5%  2.7%  0.0%  0.0%    skip:88.1%
[libx264 @ 0x5b9657e0a480] mb B  I16..4:  0.0%  0.0%  0.0%  B16..8:  4.3%  1.7%  0.7%  direct: 0.7%  skip:92.6%  L0:35.7% L1:41.7% BI:22.6%
[libx264 @ 0x5b9657e0a480] 8x8 transform intra:43.1% inter:22.4%
[libx264 @ 0x5b9657e0a480] coded y,uvDC,uvAC intra: 36.1% 42.9% 36.9% inter: 2.4% 0.8% 0.3%
[libx264 @ 0x5b9657e0a480] i16 v,h,dc,p: 54% 28%  9% 10%
[libx264 @ 0x5b9657e0a480] i8 v,h,dc,ddl,ddr,vr,hd,vl,hu: 42% 11% 29%  2%  7%  3%  3%  1%  3%
[libx264 @ 0x5b9657e0a480] i4 v,h,dc,ddl,ddr,vr,hd,vl,hu: 19% 27% 20%  4%  7%  4% 11%  2%  6%
[libx264 @ 0x5b9657e0a480] i8c dc,h,v,p: 66% 20% 12%  2%
[libx264 @ 0x5b9657e0a480] Weighted P-Frames: Y:0.0% UV:0.0%
[libx264 @ 0x5b9657e0a480] ref P L0: 64.5% 12.5% 17.1%  5.8%
[libx264 @ 0x5b9657e0a480] ref B L0: 84.7% 13.1%  2.3%
[libx264 @ 0x5b9657e0a480] ref B L1: 93.8%  6.2%
[libx264 @ 0x5b9657e0a480] kb/s:963.27
/home/xinjie/Newton_Connection/Newton/phystwin_bridge/tools/core/newton_import_ir.py:1209: UserWarning: tabletop_table_box: PhysTwin ground collide_elas is present in IR, but native Newton SemiImplicit has no direct 1-to-1 restitution field for particle-vs-shape contacts. Ground bounce will therefore use native Newton ground ke/kd/kf defaults unless --ground-restitution-mode=approximate-native is selected.
  warnings.warn(message)
ffmpeg version 6.1.1-3ubuntu5+esm7 Copyright (c) 2000-2023 the FFmpeg developers
  built with gcc 13 (Ubuntu 13.3.0-6ubuntu2~24.04)
  configuration: --prefix=/usr --extra-version=3ubuntu5+esm7 --toolchain=hardened --libdir=/usr/lib/x86_64-linux-gnu --incdir=/usr/include/x86_64-linux-gnu --arch=amd64 --enable-gpl --disable-stripping --disable-omx --enable-gnutls --enable-libaom --enable-libass --enable-libbs2b --enable-libcaca --enable-libcdio --enable-libcodec2 --enable-libdav1d --enable-libflite --enable-libfontconfig --enable-libfreetype --enable-libfribidi --enable-libglslang --enable-libgme --enable-libgsm --enable-libharfbuzz --enable-libmp3lame --enable-libmysofa --enable-libopenjpeg --enable-libopenmpt --enable-libopus --enable-librubberband --enable-libshine --enable-libsnappy --enable-libsoxr --enable-libspeex --enable-libtheora --enable-libtwolame --enable-libvidstab --enable-libvorbis --enable-libvpx --enable-libwebp --enable-libx265 --enable-libxml2 --enable-libxvid --enable-libzimg --enable-openal --enable-opencl --enable-opengl --disable-sndio --enable-libvpl --disable-libmfx --enable-libdc1394 --enable-libdrm --enable-libiec61883 --enable-chromaprint --enable-frei0r --enable-ladspa --enable-libbluray --enable-libjack --enable-libpulse --enable-librabbitmq --enable-librist --enable-libsrt --enable-libssh --enable-libsvtav1 --enable-libx264 --enable-libzmq --enable-libzvbi --enable-lv2 --enable-sdl2 --enable-libplacebo --enable-librav1e --enable-pocketsphinx --enable-librsvg --enable-libjxl --enable-shared
  libavutil      58. 29.100 / 58. 29.100
  libavcodec     60. 31.102 / 60. 31.102
  libavformat    60. 16.100 / 60. 16.100
  libavdevice    60.  3.100 / 60.  3.100
  libavfilter     9. 12.100 /  9. 12.100
  libswscale      7.  5.100 /  7.  5.100
  libswresample   4. 12.100 /  4. 12.100
  libpostproc    57.  3.100 / 57.  3.100
Input #0, rawvideo, from 'fd:':
  Duration: N/A, start: 0.000000, bitrate: 663552 kb/s
  Stream #0:0: Video: rawvideo (RGB[24] / 0x18424752), rgb24, 1280x720, 663552 kb/s, 30 tbr, 30 tbn
Stream mapping:
  Stream #0:0 -> #0:0 (rawvideo (native) -> h264 (libx264))
[libx264 @ 0x5e89e5750480] using cpu capabilities: MMX2 SSE2Fast SSSE3 SSE4.2 AVX FMA3 BMI2 AVX2
[libx264 @ 0x5e89e5750480] profile High, level 3.1, 4:2:0, 8-bit
[libx264 @ 0x5e89e5750480] 264 - core 164 r3108 31e19f9 - H.264/MPEG-4 AVC codec - Copyleft 2003-2023 - http://www.videolan.org/x264.html - options: cabac=1 ref=3 deblock=1:0:0 analyse=0x3:0x113 me=hex subme=7 psy=1 psy_rd=1.00:0.00 mixed_ref=1 me_range=16 chroma_me=1 trellis=1 8x8dct=1 cqm=0 deadzone=21,11 fast_pskip=1 chroma_qp_offset=-2 threads=22 lookahead_threads=3 sliced_threads=0 nr=0 decimate=1 interlaced=0 bluray_compat=0 constrained_intra=0 bframes=3 b_pyramid=2 b_adapt=1 b_bias=0 direct=1 weightb=1 open_gop=0 weightp=2 keyint=250 keyint_min=25 scenecut=40 intra_refresh=0 rc_lookahead=40 rc=crf mbtree=1 crf=18.0 qcomp=0.60 qpmin=0 qpmax=69 qpstep=4 ip_ratio=1.40 aq=1:1.00
Output #0, mp4, to '/home/xinjie/Newton_Connection/Newton/phystwin_bridge/results/robot_rope_franka/candidates/20260401_202952_remotefix_visradius_c11/debug/work/robot_rope_tabletop_hero_debug.mp4':
  Metadata:
    encoder         : Lavf60.16.100
  Stream #0:0: Video: h264 (avc1 / 0x31637661), yuv420p(tv, progressive), 1280x720, q=2-31, 30 fps, 15360 tbn
    Metadata:
      encoder         : Lavc60.31.102 libx264
    Side data:
      cpb: bitrate max/min/avg: 0/0/0 buffer size: 0 vbv_delay: N/A
frame=    0 fps=0.0 q=0.0 size=       0kB time=N/A bitrate=N/A speed=N/A    frame=    0 fps=0.0 q=0.0 size=       0kB time=N/A bitrate=N/A speed=N/A    frame=   53 fps= 53 q=24.0 size=       0kB time=00:00:01.70 bitrate=   0.2kbits/s speed=1.69x    frame=  110 fps= 73 q=24.0 size=     256kB time=00:00:03.60 bitrate= 582.6kbits/s speed=2.38x    [out#0/mp4 @ 0x5e89e574ec80] video:709kB audio:0kB subtitle:0kB other streams:0kB global headers:0kB muxing overhead: 0.423858%
frame=  186 fps=113 q=-1.0 Lsize=     712kB time=00:00:06.10 bitrate= 955.8kbits/s speed=3.71x    
[libx264 @ 0x5e89e5750480] frame I:1     Avg QP:14.48  size: 53042
[libx264 @ 0x5e89e5750480] frame P:50    Avg QP:18.43  size:  8310
[libx264 @ 0x5e89e5750480] frame B:135   Avg QP:24.82  size:  1900
[libx264 @ 0x5e89e5750480] consecutive B-frames:  1.6%  4.3%  1.6% 92.5%
[libx264 @ 0x5e89e5750480] mb I  I16..4: 15.4% 61.2% 23.4%
[libx264 @ 0x5e89e5750480] mb P  I16..4:  0.2%  0.3%  0.3%  P16..4:  4.5%  3.4%  2.9%  0.0%  0.0%    skip:88.4%
[libx264 @ 0x5e89e5750480] mb B  I16..4:  0.0%  0.1%  0.0%  B16..8:  3.7%  1.5%  0.7%  direct: 0.6%  skip:93.4%  L0:34.2% L1:43.6% BI:22.2%
[libx264 @ 0x5e89e5750480] 8x8 transform intra:55.4% inter:24.4%
[libx264 @ 0x5e89e5750480] coded y,uvDC,uvAC intra: 26.2% 24.1% 14.4% inter: 2.4% 0.9% 0.4%
[libx264 @ 0x5e89e5750480] i16 v,h,dc,p: 54% 32%  7%  6%
[libx264 @ 0x5e89e5750480] i8 v,h,dc,ddl,ddr,vr,hd,vl,hu: 47% 13% 34%  1%  1%  1%  1%  1%  2%
[libx264 @ 0x5e89e5750480] i4 v,h,dc,ddl,ddr,vr,hd,vl,hu: 26% 27% 14%  4%  6%  6%  8%  4%  5%
[libx264 @ 0x5e89e5750480] i8c dc,h,v,p: 71% 18%  9%  1%
[libx264 @ 0x5e89e5750480] Weighted P-Frames: Y:0.0% UV:0.0%
[libx264 @ 0x5e89e5750480] ref P L0: 66.2% 15.4% 13.6%  4.8%
[libx264 @ 0x5e89e5750480] ref B L0: 87.9% 10.0%  2.1%
[libx264 @ 0x5e89e5750480] ref B L1: 95.6%  4.4%
[libx264 @ 0x5e89e5750480] kb/s:935.52
/home/xinjie/Newton_Connection/Newton/phystwin_bridge/tools/core/newton_import_ir.py:1209: UserWarning: tabletop_table_box: PhysTwin ground collide_elas is present in IR, but native Newton SemiImplicit has no direct 1-to-1 restitution field for particle-vs-shape contacts. Ground bounce will therefore use native Newton ground ke/kd/kf defaults unless --ground-restitution-mode=approximate-native is selected.
  warnings.warn(message)
ffmpeg version 6.1.1-3ubuntu5+esm7 Copyright (c) 2000-2023 the FFmpeg developers
  built with gcc 13 (Ubuntu 13.3.0-6ubuntu2~24.04)
  configuration: --prefix=/usr --extra-version=3ubuntu5+esm7 --toolchain=hardened --libdir=/usr/lib/x86_64-linux-gnu --incdir=/usr/include/x86_64-linux-gnu --arch=amd64 --enable-gpl --disable-stripping --disable-omx --enable-gnutls --enable-libaom --enable-libass --enable-libbs2b --enable-libcaca --enable-libcdio --enable-libcodec2 --enable-libdav1d --enable-libflite --enable-libfontconfig --enable-libfreetype --enable-libfribidi --enable-libglslang --enable-libgme --enable-libgsm --enable-libharfbuzz --enable-libmp3lame --enable-libmysofa --enable-libopenjpeg --enable-libopenmpt --enable-libopus --enable-librubberband --enable-libshine --enable-libsnappy --enable-libsoxr --enable-libspeex --enable-libtheora --enable-libtwolame --enable-libvidstab --enable-libvorbis --enable-libvpx --enable-libwebp --enable-libx265 --enable-libxml2 --enable-libxvid --enable-libzimg --enable-openal --enable-opencl --enable-opengl --disable-sndio --enable-libvpl --disable-libmfx --enable-libdc1394 --enable-libdrm --enable-libiec61883 --enable-chromaprint --enable-frei0r --enable-ladspa --enable-libbluray --enable-libjack --enable-libpulse --enable-librabbitmq --enable-librist --enable-libsrt --enable-libssh --enable-libsvtav1 --enable-libx264 --enable-libzmq --enable-libzvbi --enable-lv2 --enable-sdl2 --enable-libplacebo --enable-librav1e --enable-pocketsphinx --enable-librsvg --enable-libjxl --enable-shared
  libavutil      58. 29.100 / 58. 29.100
  libavcodec     60. 31.102 / 60. 31.102
  libavformat    60. 16.100 / 60. 16.100
  libavdevice    60.  3.100 / 60.  3.100
  libavfilter     9. 12.100 /  9. 12.100
  libswscale      7.  5.100 /  7.  5.100
  libswresample   4. 12.100 /  4. 12.100
  libpostproc    57.  3.100 / 57.  3.100
Input #0, rawvideo, from 'fd:':
  Duration: N/A, start: 0.000000, bitrate: 663552 kb/s
  Stream #0:0: Video: rawvideo (RGB[24] / 0x18424752), rgb24, 1280x720, 663552 kb/s, 30 tbr, 30 tbn
Stream mapping:
  Stream #0:0 -> #0:0 (rawvideo (native) -> h264 (libx264))
[libx264 @ 0x58119f9ca580] using cpu capabilities: MMX2 SSE2Fast SSSE3 SSE4.2 AVX FMA3 BMI2 AVX2
[libx264 @ 0x58119f9ca580] profile High, level 3.1, 4:2:0, 8-bit
[libx264 @ 0x58119f9ca580] 264 - core 164 r3108 31e19f9 - H.264/MPEG-4 AVC codec - Copyleft 2003-2023 - http://www.videolan.org/x264.html - options: cabac=1 ref=3 deblock=1:0:0 analyse=0x3:0x113 me=hex subme=7 psy=1 psy_rd=1.00:0.00 mixed_ref=1 me_range=16 chroma_me=1 trellis=1 8x8dct=1 cqm=0 deadzone=21,11 fast_pskip=1 chroma_qp_offset=-2 threads=22 lookahead_threads=3 sliced_threads=0 nr=0 decimate=1 interlaced=0 bluray_compat=0 constrained_intra=0 bframes=3 b_pyramid=2 b_adapt=1 b_bias=0 direct=1 weightb=1 open_gop=0 weightp=2 keyint=250 keyint_min=25 scenecut=40 intra_refresh=0 rc_lookahead=40 rc=crf mbtree=1 crf=18.0 qcomp=0.60 qpmin=0 qpmax=69 qpstep=4 ip_ratio=1.40 aq=1:1.00
Output #0, mp4, to '/home/xinjie/Newton_Connection/Newton/phystwin_bridge/results/robot_rope_franka/candidates/20260401_202952_remotefix_visradius_c11/validation/work/robot_rope_tabletop_hero_validation.mp4':
  Metadata:
    encoder         : Lavf60.16.100
  Stream #0:0: Video: h264 (avc1 / 0x31637661), yuv420p(tv, progressive), 1280x720, q=2-31, 30 fps, 15360 tbn
    Metadata:
      encoder         : Lavc60.31.102 libx264
    Side data:
      cpb: bitrate max/min/avg: 0/0/0 buffer size: 0 vbv_delay: N/A
frame=    0 fps=0.0 q=0.0 size=       0kB time=N/A bitrate=N/A speed=N/A    frame=   12 fps=0.0 q=24.0 size=       0kB time=00:00:00.33 bitrate=   1.2kbits/s speed=0.666x    frame=   90 fps= 90 q=24.0 size=     256kB time=00:00:02.93 bitrate= 715.1kbits/s speed=2.92x    [out#0/mp4 @ 0x58119f9c8c80] video:595kB audio:0kB subtitle:0kB other streams:0kB global headers:0kB muxing overhead: 0.503568%
frame=  186 fps=149 q=-1.0 Lsize=     598kB time=00:00:06.10 bitrate= 803.0kbits/s speed=4.87x    
[libx264 @ 0x58119f9ca580] frame I:1     Avg QP:10.73  size: 81927
[libx264 @ 0x58119f9ca580] frame P:48    Avg QP:16.92  size:  5847
[libx264 @ 0x58119f9ca580] frame B:137   Avg QP:22.58  size:  1796
[libx264 @ 0x58119f9ca580] consecutive B-frames:  0.5%  2.2%  4.8% 92.5%
[libx264 @ 0x58119f9ca580] mb I  I16..4: 32.0% 26.3% 41.7%
[libx264 @ 0x58119f9ca580] mb P  I16..4:  0.1%  0.3%  0.2%  P16..4:  3.5%  2.2%  1.8%  0.0%  0.0%    skip:91.8%
[libx264 @ 0x58119f9ca580] mb B  I16..4:  0.0%  0.1%  0.0%  B16..8:  3.1%  1.1%  0.5%  direct: 0.5%  skip:94.7%  L0:36.2% L1:39.1% BI:24.8%
[libx264 @ 0x58119f9ca580] 8x8 transform intra:37.7% inter:18.3%
[libx264 @ 0x58119f9ca580] coded y,uvDC,uvAC intra: 30.2% 40.6% 36.2% inter: 1.8% 0.5% 0.2%
[libx264 @ 0x58119f9ca580] i16 v,h,dc,p: 77% 10% 10%  3%
[libx264 @ 0x58119f9ca580] i8 v,h,dc,ddl,ddr,vr,hd,vl,hu: 30%  7% 50%  1%  3%  4%  2%  0%  2%
[libx264 @ 0x58119f9ca580] i4 v,h,dc,ddl,ddr,vr,hd,vl,hu: 26% 31% 15%  1%  6%  5%  7%  1%  7%
[libx264 @ 0x58119f9ca580] i8c dc,h,v,p: 69% 16% 12%  2%
[libx264 @ 0x58119f9ca580] Weighted P-Frames: Y:0.0% UV:0.0%
[libx264 @ 0x58119f9ca580] ref P L0: 65.9% 12.0% 17.2%  4.9%
[libx264 @ 0x58119f9ca580] ref B L0: 85.2% 12.7%  2.1%
[libx264 @ 0x58119f9ca580] ref B L1: 95.1%  4.9%
[libx264 @ 0x58119f9ca580] kb/s:785.24
